<svg width="37" height="37" viewBox="0 0 37 37" fill="none" xmlns="http://www.w3.org/2000/svg">
<path d="M21.1671 32.375C20.896 32.8422 20.507 33.2301 20.0389 33.4997C19.5709 33.7693 19.0402 33.9112 18.5 33.9112C17.9598 33.9112 17.4291 33.7693 16.9611 33.4997C16.493 33.2301 16.104 32.8422 15.8329 32.375M27.75 12.3333C27.75 9.88006 26.7754 7.52729 25.0407 5.79257C23.306 4.05786 20.9533 3.08331 18.5 3.08331C16.0467 3.08331 13.694 4.05786 11.9593 5.79257C10.2246 7.52729 9.25 9.88006 9.25 12.3333C9.25 23.125 4.625 26.2083 4.625 26.2083H32.375C32.375 26.2083 27.75 23.125 27.75 12.3333Z" stroke="#1E1E1E" stroke-width="4" stroke-linecap="round" stroke-linejoin="round"/>
</svg>
